<?xml version="1.0" standalone="no"?>
<!DOCTYPE svg PUBLIC "-//W3C//DTD SVG 20010904//EN"
 "http://www.w3.org/TR/2001/REC-SVG-20010904/DTD/svg10.dtd">
<svg version="1.0" xmlns="http://www.w3.org/2000/svg"
 width="187.000000pt" height="267.000000pt" viewBox="0 0 187.000000 267.000000"
 preserveAspectRatio="xMidYMid meet">

<g transform="translate(0.000000,267.000000) scale(0.100000,-0.100000)"
fill="#000000" stroke="none">
<path d="M306 2590 c-10 -125 -17 -170 -27 -170 -5 0 -26 16 -48 35 -52 48
-60 44 -17 -9 20 -23 36 -48 36 -54 0 -6 -33 -13 -77 -16 -171 -14 -179 -19
-53 -32 63 -7 118 -12 123 -13 14 -2 7 -19 -19 -51 -36 -42 -26 -46 20 -9 20
17 39 29 41 27 3 -3 20 -157 26 -238 2 -33 19 80 23 153 2 43 7 81 10 84 3 3
22 -9 42 -26 45 -37 58 -32 21 7 -15 16 -27 33 -27 39 0 14 34 23 90 23 25 0
70 3 100 7 65 8 44 21 -35 22 -82 2 -155 13 -155 24 0 6 12 23 27 39 36 38 25
43 -20 11 -20 -14 -39 -24 -42 -21 -3 3 -10 56 -16 119 -13 147 -14 151 -23
49z"/>
<path d="M798 2296 c-103 -37 -201 -124 -248 -221 -33 -67 -39 -173 -15 -247
88 -265 454 -374 703 -208 113 76 169 165 179 288 10 118 -31 208 -136 304
-89 80 -147 101 -296 105 -107 3 -127 1 -187 -21z m324 -16 c152 -47 259 -174
274 -326 4 -38 3 -66 -1 -62 -4 4 -24 -13 -43 -37 -58 -75 -189 -150 -332
-190 -47 -14 -101 -19 -197 -19 l-132 -1 -46 45 c-25 25 -58 70 -73 100 -23
47 -27 67 -26 140 0 96 14 136 72 212 46 61 122 114 198 138 82 26 221 26 306
0z"/>
<path d="M898 2239 c-91 -13 -182 -66 -221 -129 -17 -27 -21 -50 -21 -105 1
-69 11 -102 42 -137 18 -21 91 -24 192 -7 48 8 96 7 181 -2 165 -18 193 -3
209 110 16 109 -25 183 -130 236 -39 20 -165 49 -190 44 -3 -1 -31 -5 -62 -10z
m77 -38 c-111 -32 -205 -95 -255 -169 l-32 -47 7 40 c9 55 29 90 68 119 59 45
147 73 237 74 30 1 26 -2 -25 -17z"/>
<path d="M424 1953 c-32 -6 -105 -72 -120 -110 -27 -65 -10 -182 42 -285 55
-108 189 -222 315 -267 35 -13 68 -27 72 -31 5 -4 0 -27 -11 -51 -30 -66 -45
-184 -38 -291 3 -51 6 -97 6 -103 0 -5 -11 -53 -25 -105 -34 -129 -48 -242
-43 -354 2 -77 7 -100 24 -123 67 -90 171 -96 249 -14 29 31 29 32 37 192 7
148 22 271 35 292 14 23 23 -27 23 -128 0 -116 25 -268 54 -322 22 -43 73 -83
105 -83 47 0 124 28 159 57 54 46 53 74 -13 274 -63 190 -57 145 -69 514 l-3
114 67 -138 c56 -115 75 -144 106 -165 68 -46 149 -26 195 46 31 51 21 96 -59
256 -91 182 -144 263 -230 353 l-69 72 -69 -29 c-65 -27 -77 -29 -209 -29
-129 0 -145 2 -201 26 -174 75 -274 209 -274 369 0 75 1 74 -56 63z m33 -98
c14 -98 52 -174 122 -244 97 -97 231 -151 376 -151 72 0 170 22 226 50 l40 21
27 -21 c38 -30 97 -102 150 -183 72 -111 185 -346 186 -387 1 -71 -64 -128
-131 -115 -42 8 -93 59 -93 93 0 33 53 79 103 90 l42 9 -41 11 c-28 8 -51 9
-74 2 -19 -6 -35 -10 -36 -10 -7 0 -115 168 -140 218 -30 60 -32 62 -37 35 -3
-15 -6 -62 -6 -103 0 -94 -24 -232 -56 -325 -39 -113 -30 -206 41 -422 48
-145 74 -204 87 -196 6 3 7 1 3 -5 -11 -18 -68 -29 -106 -21 -42 9 -75 45 -90
97 -19 66 -40 225 -40 304 0 144 -33 168 -81 61 -62 -137 -139 -379 -139 -438
0 -11 -4 -26 -9 -34 -13 -20 -70 2 -107 40 -29 30 -29 31 -26 137 4 167 36
324 87 421 14 27 15 41 6 82 -6 28 -11 89 -11 137 0 75 7 121 37 249 4 18 0
23 -23 29 -16 4 -35 11 -41 17 -7 5 -13 6 -13 1 0 -4 -6 -1 -12 7 -7 9 -43 39
-80 68 -65 51 -136 134 -183 215 -40 71 -40 82 -1 120 20 18 36 38 36 44 0 6
-11 0 -25 -12 -32 -29 -94 -43 -107 -24 -14 21 -3 107 19 136 22 30 79 72 97
72 7 0 17 -31 23 -75z"/>
</g>
</svg>
